<?xml version="1.0" standalone="no"?>
<!DOCTYPE svg PUBLIC "-//W3C//DTD SVG 20010904//EN"
 "http://www.w3.org/TR/2001/REC-SVG-20010904/DTD/svg10.dtd">
<svg version="1.0" xmlns="http://www.w3.org/2000/svg"
 width="50.000000pt" height="56.000000pt" viewBox="0 0 50.000000 56.000000"
 preserveAspectRatio="xMidYMid meet">

<g transform="translate(0.000000,56.000000) scale(0.100000,-0.100000)"
fill="#000000" stroke="none">
<path d="M10 485 l0 -65 230 0 230 0 0 65 0 65 -230 0 -230 0 0 -65z m100 45
c8 -5 11 -10 7 -10 -5 0 -5 -5 -1 -12 5 -7 10 -4 16 11 9 24 28 20 29 -7 0
-12 3 -10 10 6 10 25 46 27 41 2 -2 -10 3 -9 17 5 16 14 24 16 33 7 9 -9 15
-9 25 0 18 14 36 -2 31 -28 -5 -26 -35 -30 -43 -5 -8 27 -35 36 -35 11 0 -14
5 -18 17 -13 11 4 14 3 9 -5 -9 -15 -36 -16 -36 -1 0 6 -5 7 -12 2 -7 -4 -43
-8 -80 -9 -64 -1 -68 0 -68 21 0 34 13 42 40 25z m260 0 c0 -5 -5 -9 -11 -7
-6 1 -14 -4 -16 -10 -3 -8 3 -13 13 -13 13 0 15 -3 7 -11 -6 -6 -16 -8 -22 -5
-12 8 -15 39 -4 49 10 11 33 8 33 -3z m38 2 c13 11 14 11 10 -2 -3 -8 -1 -23
4 -32 5 -12 5 -18 -2 -18 -5 0 -10 5 -10 10 0 23 -19 7 -33 -27 -11 -26 -16
-32 -17 -18 l-1 20 -9 -20 c-8 -19 -9 -19 -9 2 -1 13 7 24 19 28 14 5 20 16
21 38 0 18 3 26 6 19 4 -10 8 -10 21 0z m-87 -75 c-13 -13 -26 -3 -16 12 3 6
11 8 17 5 6 -4 6 -10 -1 -17z m-230 -4 c0 -15 2 -15 9 2 8 19 9 19 9 -3 1 -17
-4 -23 -16 -20 -19 4 -31 38 -14 38 6 0 11 -8 12 -17z m59 -3 c0 -9 -7 -17
-15 -17 -8 0 -15 8 -15 17 0 9 7 17 15 17 8 0 15 -8 15 -17z m60 14 c0 -1 -3
-9 -6 -18 -8 -21 -24 -20 -25 2 0 14 -2 14 -9 -3 -8 -19 -9 -19 -9 2 -1 18 4
22 24 21 14 -1 25 -3 25 -4z m80 -12 c0 -13 -9 -19 -35 -20 -29 -2 -35 1 -35
18 0 16 6 20 35 20 27 0 35 -4 35 -18z m130 9 c0 -3 -4 -12 -9 -19 -6 -11 -9
-9 -13 5 -3 12 0 20 8 20 8 0 14 -3 14 -6z m-90 -21 c0 -5 -8 -10 -17 -10 -15
0 -16 2 -3 10 19 12 20 12 20 0z"/>
<path d="M290 510 c0 -19 3 -21 12 -12 9 9 9 15 0 24 -9 9 -12 7 -12 -12z"/>
<path d="M10 210 l0 -200 85 0 85 0 1 38 2 37 7 -40 7 -40 3 40 3 40 7 -40 7
-40 2 43 c1 52 20 47 23 -6 1 -33 2 -32 8 13 l7 50 3 -50 3 -50 7 45 c7 45 7
45 8 8 3 -50 22 -60 23 -11 l2 38 7 -40 6 -40 6 40 5 40 1 -37 2 -38 64 0
c103 0 96 -15 96 206 l0 194 -240 0 -240 0 0 -200z m246 131 c-1 -29 -32 -74
-46 -66 -14 8 -3 45 20 70 13 14 24 25 25 25 1 0 1 -13 1 -29z m184 19 c0 -5
-8 -10 -17 -10 -15 0 -16 2 -3 10 19 12 20 12 20 0z m-127 -7 c-7 -2 -19 -2
-25 0 -7 3 -2 5 12 5 14 0 19 -2 13 -5z m44 1 c-3 -3 -12 -4 -19 -1 -8 3 -5 6
6 6 11 1 17 -2 13 -5z m13 -24 c0 -5 -13 -10 -29 -10 -17 0 -33 5 -36 10 -4 6
8 10 29 10 20 0 36 -4 36 -10z m-75 -59 c-2 -9 -5 -22 -7 -29 -2 -8 21 -23 60
-39 86 -35 73 -39 -18 -6 l-73 27 -71 -26 c-39 -14 -80 -29 -91 -33 -45 -15
20 19 95 49 47 20 75 37 74 46 0 8 4 23 9 34 7 14 11 16 17 6 5 -7 7 -20 5
-29z m45 29 c0 -5 -4 -10 -10 -10 -5 0 -10 5 -10 10 0 6 5 10 10 10 6 0 10 -4
10 -10z m-10 -125 c78 -29 69 -32 -18 -6 -62 19 -64 19 -119 0 -78 -27 -90
-23 -18 6 75 30 76 30 155 0z m0 -25 c11 -6 16 -17 14 -27 -4 -16 -17 -18 -95
-18 -49 0 -89 3 -89 7 0 19 48 30 111 26 42 -2 63 0 53 5 -18 10 -85 12 -134
4 -35 -6 -35 -6 5 8 41 15 103 12 135 -5z"/>
<path d="M229 334 c-7 -9 -14 -25 -14 -37 -2 -21 -1 -21 14 2 14 22 23 51 16
51 -1 0 -8 -7 -16 -16z"/>
<path d="M279 288 c-5 -18 -6 -38 -1 -34 7 8 12 36 6 36 -2 0 -4 -1 -5 -2z"/>
</g>
</svg>
